<?xml version="1.0" encoding="utf-8"?>
<!-- Generator: Adobe Illustrator 23.0.4, SVG Export Plug-In . SVG Version: 6.00 Build 0)  -->
<svg version="1.1" id="Layer_1" xmlns="http://www.w3.org/2000/svg" xmlns:xlink="http://www.w3.org/1999/xlink" x="0px" y="0px"
	 viewBox="0 0 512 512" style="enable-background:new 0 0 512 512;" xml:space="preserve">
<style type="text/css">
	.st0{fill:#999999;stroke:#000000;stroke-width:6;stroke-miterlimit:10;}
	.st1{clip-path:url(#SVGID_2_);}
	.st2{clip-path:url(#SVGID_4_);}
	.st3{clip-path:url(#SVGID_4_);fill:#FFFFFF;}
	.st4{clip-path:url(#SVGID_4_);fill:#F2F2F2;}
</style>
<path class="st0" d="M496.6,513.5H14.4c-8.3,0-14.9-6.7-14.9-14.9V15.4c0-8.3,6.7-14.9,14.9-14.9h482.1c8.3,0,14.9,6.7,14.9,14.9
	v483.1C511.5,506.8,504.8,513.5,496.6,513.5z"/>
<g id="Artwork_10_1_">
	<g>
		<defs>
			<rect id="SVGID_1_" x="47.3" y="4" width="417.4" height="504"/>
		</defs>
		<clipPath id="SVGID_2_">
			<use xlink:href="#SVGID_1_"  style="overflow:visible;"/>
		</clipPath>
		<g class="st1">
			<defs>
				<rect id="SVGID_3_" x="47.3" y="4" width="417.4" height="504"/>
			</defs>
			<clipPath id="SVGID_4_">
				<use xlink:href="#SVGID_3_"  style="overflow:visible;"/>
			</clipPath>
			<path class="st2" d="M440.4,173.1c0.2-2.6,0.5-5,0.7-7.9c-4.7,4.9-8.4,9.8-13.2,13.5c-3,2.3-7.5,2.5-11.3,3.7
				c0.3-3.9-0.2-8.2,1.1-11.7c4.4-12.2,9.3-24.3,14.4-36.3c3-7.1,6.7-13.8,10.2-20.7c2-4,4.1-7.8,6.2-11.8c-0.5-0.2-0.9-0.5-1.4-0.7
				c-2.5,2.3-5.1,4.6-8.3,7.5c3.2-50-8.5-91.4-29.8-104.7c1.6,2.8,3.2,4.9,4.1,7.2c1.2,3.2,1.9,6.7,2.8,10c-3,0-6,0-9,0.1
				c-1,0-1.9,0.2-5.4,0.5c19.6,7.8,28.3,21.9,30.3,39.6c1.4,12.1,0.8,24.5-0.1,36.7c-0.7,9.1-3.4,18.1-4.9,26
				c-5.2-14.7-9.2-30.1-15.9-44.3c-8.5-17.9-23.1-30.5-32.6-31.5c22.1,20.9,29.4,30.9,28.9,39c-6.4-2.9-12.8-5.8-19.3-8.7
				c-0.3,0.7-0.7,1.4-1,2.1c1.3,0.7,2.5,1.4,3.8,2.1c20.1,11,29.1,27.5,25.1,49.9c-8.6,49.2-39,81.1-83.2,101.3
				c-1.6,0.7-3.4,0.8-6.2,1.4c0.4-7.9,0.7-15.2,1.1-22.5c-7.2,12.8-15.3,23.6-28.3,29.4c-6.1,2.7-10.9,5.3-11.1,13.3
				c-1.4-3.1-2.8-6.1-4.2-9.4c-5.8,8-16.7,12.1-27.6,12.3c-10.9-0.2-21.8-4.3-27.6-12.3c-1.5,3.2-2.9,6.3-4.2,9.4
				c-0.2-8-5.1-10.6-11.1-13.3c-13-5.8-21.1-16.6-28.3-29.4c0.4,7.3,0.7,14.6,1.1,22.5c-2.8-0.6-4.6-0.7-6.2-1.4
				C135.4,213.9,105,182,96.4,132.8c-3.9-22.5,5.1-39,25.1-49.9c1.3-0.7,2.5-1.4,3.8-2.1c-0.3-0.7-0.7-1.4-1-2.1
				c-6.5,2.9-13,5.9-19.3,8.7c-0.6-8.1,6.8-18.1,28.9-39c-9.5,1-24.1,13.6-32.6,31.5c-6.7,14.2-10.8,29.6-15.9,44.3
				c-1.6-7.9-4.2-16.8-4.9-26c-0.9-12.2-1.5-24.6-0.1-36.7c2-17.7,10.7-31.8,30.3-39.6c-3.5-0.3-4.5-0.4-5.4-0.5c-3,0-6,0-9-0.1
				c0.9-3.3,1.6-6.8,2.8-10c0.9-2.3,2.4-4.4,4.1-7.2C81.8,17.3,70,58.6,73.2,108.7c-3.3-3-5.8-5.2-8.3-7.5c-0.5,0.2-0.9,0.5-1.4,0.7
				c2.1,3.9,4.2,7.8,6.2,11.8c3.5,6.9,7.2,13.6,10.2,20.7c5.1,12,10,24.1,14.4,36.3c1.3,3.6,0.8,7.8,1.1,11.7
				c-3.8-1.2-8.3-1.4-11.3-3.7c-4.8-3.6-8.6-8.6-13.2-13.5c0.3,2.9,0.5,5.3,0.7,7.9c-8.9-2.6-10.5-4.2-24.4-24.7
				c1,11.9,5,21.3,14.1,27.9c5.3,3.8,10.8,7.7,16.8,9.9c23.5,8.5,41.9,24,59.2,41.3c1.5,1.5,2.3,3.8,3.5,5.7c-2,1-3.9,2.6-6,3
				c-16.5,3-32.2-0.4-47.5-6.2c-4-1.5-8-3.4-12.2-4.5c11.9,11.7,26.5,17.4,42.8,19.1c10.9,1.1,21.9,1.5,32.9,1.2
				c21.5-0.6,38.9,9.7,56.7,19.4c0,0.8,0,1.5,0,2.3c-4.6,0.4-9.2,1-13.9,1c-19.5,0.1-39,0.1-58.4,0.1c-5.9,0-11.9,0-20.2,0
				c3.3,6.4,5,11.8,8.3,15.6c14.7,16.9,33.9,26,55.9,28.2c5.2,0.5,11.9-1.5,15.9-4.7c3.6-3,4.4-9.3,6.3-13.9
				c-12.7-12.9-44.2-17.7-60.5-9c8.2,12.3,21.3,15.8,34.5,20.3c-15.2,1.9-43.3-13.7-50.7-29.1c18.4,0,36.1-1.2,53.5,0.5
				c8.5,0.8,16.4,7.1,24.6,10.7c2,0.8,4.4,0.8,6.6,0.7c4.8-0.1,9.5-0.5,14.3-0.8c0,0.7,0,1.4,0,2.1c-4.6,0.8-10.3,0-13.7,2.7
				c-3.4,2.7-3.7,5.5-5.8,9.4c-0.4,0.8-0.9,1.7-1.6,2.6l0.6,6.9c-1.3,14.9,12.7,23.8,14.7,38.2c-1.9-2.6-3.4-4.7-4.9-6.8
				c-0.6,0.5-1.3,1-1.9,1.5c5.2,13.5,10.4,26.9,15.4,39.7c-13.9-3.9-12.2-18.5-17.2-29.5c-0.7,26.2-7.3,51.1-13.7,76.2
				c-2.4,9.4-2.5,19.6-2,29.4c0.6,11.9,7.2,21.3,17.4,27.3c7.6,4.5,15.8,8,23.8,11.7c6.8,3.2,13.6,6.1,20.5,9.1v0.3
				c0.1-0.1,0.2-0.1,0.3-0.2c0.1,0.1,0.2,0.1,0.3,0.2v-0.3c6.9-3,13.8-6,20.5-9.1c8-3.7,16.2-7.2,23.8-11.7
				c10.2-6.1,16.8-15.4,17.4-27.3c0.5-9.8,0.4-20-2-29.4c-6.4-25.1-13-50-13.7-76.2c-4.9,10.9-3.3,25.6-17.2,29.5
				c4.9-12.7,10.1-26.2,15.3-39.7c-0.6-0.5-1.3-1-1.9-1.5c-1.5,2.1-3,4.2-4.9,6.8c2-14.4,16-23.3,14.7-38.2l0.6-6.9
				c-0.6-0.9-1.1-1.8-1.6-2.6c-2-3.9-2.4-6.8-5.8-9.4c-3.4-2.7-9.1-1.9-13.7-2.7c0-0.7,0-1.4,0-2.1c4.8,0.3,9.5,0.7,14.3,0.8
				c2.2,0.1,4.7,0.1,6.6-0.7c8.3-3.5,16.2-9.9,24.6-10.7c17.4-1.7,35-0.5,53.5-0.5c-7.4,15.4-35.4,31.1-50.7,29.1
				c13.2-4.5,26.3-8,34.5-20.3c-16.3-8.7-47.9-3.9-60.5,9c1.9,4.6,2.7,10.9,6.3,13.9c4,3.3,10.7,5.3,15.9,4.7
				c22-2.2,41.2-11.3,55.9-28.2c3.3-3.8,5-9.2,8.3-15.6c-8.3,0-14.2,0-20.2,0c-19.5,0-39,0-58.4-0.1c-4.6,0-9.2-0.7-13.9-1
				c0-0.8,0-1.5,0-2.3c17.7-9.8,35.1-20.1,56.7-19.4c10.9,0.3,22-0.1,32.9-1.2c16.2-1.7,30.9-7.4,42.8-19.1c-4.2,1.1-8.2,3-12.2,4.5
				c-15.3,5.8-31,9.2-47.5,6.2c-2.1-0.4-4-1.9-6-3c1.1-1.9,2-4.2,3.5-5.7c17.3-17.2,35.8-32.7,59.2-41.3c6-2.2,11.5-6.1,16.8-9.9
				c9.1-6.6,13.2-16.1,14.1-27.9C450.9,168.9,449.3,170.6,440.4,173.1 M234.8,382.2c-12.4-14.3-4.2-35.2,17.9-42.4
				c-4.1,4.8-7.4,8.6-10.7,12.4c2.8,0.7,5.6,1.4,7.6,1.9c-4,1.8-8.3,3.1-11.6,5.7c-0.9,0.7,1.7,5.6,3.2,10.2c2-3.1,2.8-4.4,3.8-5.8
				c5.7,6.6,5.4,8.3-1.2,11.8C240.8,377.7,238.1,380,234.8,382.2 M268.3,392.5c-3.3,2.8-8,3.9-12.3,5.7c-4.3-1.8-9.1-2.9-12.3-5.7
				c-7.1-6.1-5.2-11.8,3.4-15.4c3.1-1.3,6-2,8.9-2.1c2.9,0.1,5.8,0.8,8.9,2.1C273.5,380.8,275.4,386.4,268.3,392.5 M277.2,382.2
				c-3.2-2.2-6-4.5-9.1-6.2c-6.5-3.5-6.9-5.1-1.2-11.8c0.9,1.4,1.8,2.8,3.8,5.8c1.5-4.6,4.1-9.5,3.2-10.2c-3.2-2.7-7.6-3.9-11.6-5.7
				c2-0.5,4.8-1.2,7.6-1.9c-3.2-3.8-6.6-7.6-10.7-12.4C281.4,347.1,289.6,367.9,277.2,382.2"/>
			<path class="st2" d="M162.8,156.3c10.7,0.8,20.5,2.5,26.8,12.2c7.1-2.8,13.2-1.7,18.6,4.4c-4.3,0.2-7.9,1.3-9.4,5.2
				c-0.8,2-1,4.4-0.6,6.5c0.2,1.2,4.9,0.5,6.9-1.3c5.2-4.8,7.8-10.7,6.6-17.8c-0.1-0.7-1.3-1.5-2.1-1.9c-3.2-1.4-5.1-4.5-4.7-7.7
				c0.4-3,2.9-5.6,5.8-6c3.7-0.5,6.7,1.1,8,4.1c1.2,2.7,0.5,5.3-2.5,8.9c6.1,4.4,11.7,9.5,19.9,9.5c3.9,0,9.2-4.2,10.2-7.9
				c1-3.6-1.1-7-4.9-6.9c-3.7,0.1-7.4,1-11.1,1.5c-0.5-6.3,4.5-11.6,12-14.5c-2.2-12.3,5.1-20.8,12.1-29.9c7,9.1,14.2,17.6,12.2,30
				c7,2.7,11.8,7.3,12.2,14.6c-3.7-0.6-7.2-1.6-10.9-1.7c-4.6-0.1-7,4.3-4.8,8.4c2.9,5.4,9,8.1,14.7,5.7c5.2-2.2,10.1-5.4,15.4-8.3
				c-0.9-1-1.3-1.4-1.6-1.8c-3-3.4-2.6-8.1,1-10.6c3.4-2.4,8.3-1.3,10.5,2.3c2.2,3.6,0.8,8.3-3.4,9.9c-2.4,0.9-2.8,2.4-2.9,4.3
				c-0.3,6.3,2.2,11.5,6.7,15.7c2.1,2,6.8,2.7,7,1.4c0.4-2.2,0.1-4.7-0.7-6.7c-1.5-3.7-5.2-4.6-9-4.9c4.2-5.7,9.6-7,18.3-4.5
				c3-4.7,7.3-8.2,12.9-9.7c4.4-1.2,9-1.9,13.7-2.4c-16.1,16.1-29.3,33.6-32.9,56.7h-3.5c-36.9,0-73.9,0-110.8,0
				c-2.1,0-2.8-0.6-3.1-2.7c-2.6-13.8-8.8-25.9-17.5-36.8C173.2,167.7,168.1,162.3,162.8,156.3"/>
			<path class="st2" d="M254.3,214.4c17.6,0,35.2,0,52.9,0c0.8,0,1.7,0,2.5,0c1.8,0.1,3.1,1,2.7,2.7c-0.2,1-1.6,1.9-2.7,2.4
				c-1.1,0.4-2.4,0.1-3.6,0.1c-35.3,0-70.7,0-106,0c-0.7,0-1.7,0.2-2.2-0.2c-0.8-0.6-1.9-1.5-1.8-2.3c0.1-0.9,1-2.1,1.9-2.6
				c0.8-0.5,2-0.2,3-0.2C218.7,214.4,236.5,214.4,254.3,214.4"/>
			<path class="st3" d="M234.2,295.9c12.4-11,31.8-11.2,44.4-0.4C263.7,287.2,248.9,287.6,234.2,295.9"/>
			<path class="st3" d="M234.2,301.4c12.4,11,31.8,11.2,44.4,0.4C263.7,310.1,248.9,309.8,234.2,301.4"/>
			<path class="st3" d="M264.4,298.8c0,4.4-3.6,8-8,8c-4.4,0-8-3.6-8-8c0-4.4,3.6-8,8-8C260.8,290.8,264.4,294.3,264.4,298.8"/>
			<path class="st2" d="M259.5,298.8c0,1.7-1.4,3.1-3.1,3.1c-1.7,0-3.1-1.4-3.1-3.1s1.4-3.1,3.1-3.1
				C258.1,295.6,259.5,297,259.5,298.8"/>
			<path class="st4" d="M281,188.8h-14.7h-0.2h-13.5c-4.5,0-6.3,2.2-6.3,5.6c0,3,1.3,5.6,6.7,5.6h4.6c1.9,0,2.7,0.6,2.7,2.2
				c0,1.5-0.7,2.1-2.5,2.1h-16.8c0.5-1.2,0.8-2.7,0.8-4.5v-19.4h-3.9v8.4h-8.5c-5.2,0-8.4,3.1-8.4,9.7c0,6.5,3.2,9.7,8.4,9.7h5.3
				c0.4,0,0.8,0,1.1-0.1v0.1h22c4.5,0,6.3-2.4,6.3-5.9c0-3-1.4-5.4-6.7-5.4h-4.5c-2.2,0-2.7-0.7-2.7-2.1c0-1.5,0.7-2.2,2.5-2.2h13.5
				h0.2H281c2.1,0,3,1.2,3,2.7v1.5h-9.2c-4.8,0-6.5,2-6.5,5.6c0,3.7,1.9,5.9,6.5,5.9h9c3.3,0,4-1.1,4-3.9v-9.1
				C287.7,191.5,285.8,188.8,281,188.8 M233.5,204.3h-3.8c-3.3,0-4.8-1.7-4.8-5.9c0-4.2,1.5-5.9,4.8-5.9h8.2v7.1
				C237.8,202.9,236.6,204.3,233.5,204.3 M283.9,203.3c0,0.7-0.3,1-1.1,1h-8.1c-1.9,0-2.7-0.9-2.7-2.3c0-1.4,0.7-2.3,2.8-2.3h9.1
				V203.3z"/>
		</g>
	</g>
</g>
</svg>
